<?xml version="1.0" encoding="UTF-8"?>
<svg id="Calque_1" data-name="Calque 1" xmlns="http://www.w3.org/2000/svg" viewBox="0 0 505.9 326.85">
  <defs>
    <style>
      .cls-1, .cls-2 {
        fill: #fff;
      }

      .cls-2 {
        opacity: .9;
      }
    </style>
  </defs>
  <path class="cls-1" d="m139.63,220.65h51.62l-.25,37.6h-51.37c-50.71,0-88.09-32.13-88.09-74.54s37.38-71.7,88.09-71.7h65.53l-28.85,38.04h-36.68c-24.48,0-42.84,14.64-42.84,35.63s18.14,34.97,42.84,34.97Z"/>
  <polygon class="cls-1" points="220.22 112.01 191.37 150.05 176.31 150.05 205.16 112.01 220.22 112.01"/>
  <polygon class="cls-2" points="227.61 112.01 193.9 150.05 176.31 150.05 210.02 112.01 227.61 112.01"/>
  <path class="cls-2" d="m362.85,150.99l-6.16,4.89c1.01-2.44,3.05-4,6.16-4.89Z"/>
  <path class="cls-2" d="m362.85,150.99l-6.16,4.89c1.01-2.44,3.05-4,6.16-4.89Z"/>
  <path class="cls-2" d="m330.62,220.65h5.43l-29.07,37.6h-78.73l38.35-49.6h-43.29l36.7-28.87c24.26-19.46,34.75-26.67,40.22-30.61-7.87.66-21.2.88-50.28.88h-21.77l29.08-38.04h97.84c2.09,0,4.13.23,6.05.66-34.4,3.45-48.93,20.32-48.93,44.81,0,10.44,2.99,19.44,9.17,26.41l-9.14,7.25c-24.04,19.02-34.1,26.45-39.78,30.39,7.21-.44,35.19-.88,58.15-.88Z"/>
  <path class="cls-2" d="m330.62,220.65h5.43l-29.07,37.6h-78.73l38.35-49.6h-43.29l36.7-28.87c24.26-19.46,34.75-26.67,40.22-30.61-7.87.66-21.2.88-50.28.88h-21.77l29.08-38.04h97.84c2.09,0,4.13.23,6.05.66-34.4,3.45-48.93,20.32-48.93,44.81,0,10.44,2.99,19.44,9.17,26.41l-9.14,7.25c-24.04,19.02-34.1,26.45-39.78,30.39,7.21-.44,35.19-.88,58.15-.88Z"/>
  <polygon class="cls-1" points="257.26 112.01 228.18 150.05 213.08 150.05 242.15 112.01 257.26 112.01"/>
  <path class="cls-1" d="m242.15,220.65l-28.79,37.24c-9.31-1.5-16.53-7.78-16.53-18,0-6.78,3.72-13.33,9.84-18.14l1.39-1.1h34.09Z"/>
  <path class="cls-2" d="m242.15,220.65l-28.79,37.24c-9.31-1.5-16.53-7.78-16.53-18,0-6.78,3.72-13.33,9.84-18.14l1.39-1.1h34.09Z"/>
  <path class="cls-1" d="m501.96,112.01l-29.07,38.04h-91.62c4.36-5.87,6.81-12.75,6.81-19.68s-2.24-13.36-6.17-18.36h120.05Z"/>
  <path class="cls-1" d="m505.9,210.38c0,29.95-18.14,47.87-62.74,47.87h-71.92l27.33-37.6h48.09c10.71,0,15.52-3.06,15.52-10.71s-4.81-10.49-15.52-10.49h-79.57c-15.36,0-27.32-2.81-36.11-7.85l29.33-23.27c2.56,1.42,6.25,2.05,11.15,2.05h79.57c35.63,0,54.87,13.33,54.87,40Z"/>
  <polygon class="cls-1" points="383.73 220.65 356.41 258.25 306.98 258.25 336.05 220.65 383.73 220.65"/>
  <path class="cls-1" d="m376.08,130.37c0,6.56-3.71,13.34-9.83,17.93l-3.4,2.69c-3.11.89-5.15,2.45-6.16,4.89l-35.3,28.01c-6.18-6.97-9.17-15.97-9.17-26.41,0-24.49,14.53-41.36,48.93-44.81,8.53,1.94,14.93,8.07,14.93,17.7Z"/>
</svg>